<?xml version="1.0" standalone="no"?>
<!DOCTYPE svg PUBLIC "-//W3C//DTD SVG 20010904//EN"
 "http://www.w3.org/TR/2001/REC-SVG-20010904/DTD/svg10.dtd">
<svg version="1.0" xmlns="http://www.w3.org/2000/svg"
 width="600.000000pt" height="600.000000pt" viewBox="0 0 600.000000 600.000000"
 preserveAspectRatio="xMidYMid meet">
<metadata>
Created by potrace 1.14, written by Peter Selinger 2001-2017
</metadata>
<g transform="translate(0.000000,600.000000) scale(0.100000,-0.100000)"
fill="#000000" stroke="none">
<path d="M2975 4661 c-3 -2 -19 -4 -37 -5 -34 -2 -139 -34 -148 -45 -3 -3 -18
-13 -35 -21 -16 -8 -34 -21 -38 -27 -4 -7 -12 -13 -16 -13 -4 0 -31 -22 -59
-49 -29 -27 -61 -52 -71 -56 -24 -7 -76 18 -116 57 -36 35 -125 94 -137 90 -4
-1 -8 2 -8 6 0 10 -74 32 -120 35 -19 2 -40 6 -47 10 -6 4 -15 3 -18 -3 -5 -8
-11 -8 -19 -1 -7 6 -16 8 -19 4 -4 -3 -21 -7 -39 -9 -67 -6 -187 -50 -233 -86
-39 -30 -143 -116 -159 -130 -21 -19 -22 -19 -58 -22 -27 -2 -68 13 -68 26 0
4 -7 8 -15 8 -8 0 -15 5 -15 10 0 6 -7 10 -15 10 -8 0 -15 4 -15 8 0 8 -71 45
-92 48 -4 1 -10 3 -13 4 -3 1 -9 4 -15 5 -5 1 -11 3 -12 4 -17 13 -215 19
-283 8 -50 -8 -84 -16 -110 -27 -11 -5 -37 -14 -57 -20 -21 -6 -38 -16 -38
-21 0 -5 -8 -9 -17 -9 -10 0 -44 -18 -76 -40 -31 -22 -59 -40 -62 -40 -8 0
-121 -115 -158 -161 -59 -73 -113 -194 -136 -301 -24 -119 -49 -168 -116 -235
-88 -90 -124 -186 -120 -315 4 -118 38 -195 125 -288 52 -55 80 -113 121 -250
50 -172 117 -288 213 -372 17 -14 45 -38 61 -52 48 -42 189 -110 242 -117 5
-1 19 -6 33 -11 30 -12 66 -20 100 -22 14 -1 30 -4 35 -7 13 -7 182 -3 217 5
15 4 39 11 53 16 14 5 25 6 25 2 0 -4 4 -2 8 3 4 6 25 19 46 30 22 11 44 25
51 30 79 72 119 73 195 5 94 -84 215 -155 283 -166 17 -3 46 -7 62 -10 48 -8
190 -3 203 6 1 2 5 3 10 5 4 1 21 7 37 14 76 31 105 45 105 53 0 4 6 8 13 8 7
0 20 8 28 18 33 36 89 74 118 78 28 5 46 -7 160 -103 14 -13 32 -23 39 -23 6
0 12 -4 12 -8 0 -8 95 -51 127 -57 10 -2 18 -4 18 -5 0 -1 9 -3 20 -6 32 -7
165 -11 165 -5 0 3 15 7 33 8 38 3 142 44 169 67 10 9 18 13 18 10 0 -7 86 61
110 86 20 22 70 38 97 31 51 -13 82 -64 69 -114 -19 -79 -217 -307 -351 -406
-38 -28 -75 -55 -81 -60 -33 -26 -163 -100 -264 -149 -132 -64 -151 -82 -144
-132 8 -58 37 -73 119 -67 39 4 81 9 95 12 14 3 39 9 55 12 42 7 48 9 66 17 9
4 20 6 25 5 5 -1 12 0 17 1 4 1 12 4 17 5 6 1 11 3 13 5 2 2 24 7 52 12 11 2
26 7 33 11 6 5 12 6 12 2 0 -3 16 1 35 9 20 9 38 15 40 16 3 0 7 1 10 1 3 1
10 3 15 4 6 1 11 3 13 5 3 2 40 11 55 12 6 1 12 5 12 8 0 7 58 24 73 21 4 0 7
3 7 9 0 5 9 10 19 10 11 0 23 5 26 10 4 6 10 8 15 5 5 -3 14 0 22 7 7 7 22 15
33 16 11 2 22 8 23 13 2 5 8 9 14 9 17 0 138 63 138 73 0 4 5 5 10 2 6 -3 10
-1 10 5 0 6 5 8 10 5 6 -3 10 -1 10 4 0 6 4 11 10 11 11 0 133 82 138 93 2 4
8 7 13 7 11 0 22 10 135 118 93 89 185 204 224 279 29 56 78 103 109 104 48 2
76 -3 98 -17 47 -30 92 -53 110 -56 10 -2 20 -6 23 -10 3 -4 19 -9 35 -12 17
-2 30 -5 30 -6 0 -2 11 -3 25 -4 14 -1 31 -5 38 -9 6 -5 12 -4 12 2 0 7 8 7
24 1 13 -5 27 -6 30 -3 3 4 21 8 38 9 18 2 43 5 56 8 12 3 31 8 41 10 11 3 29
10 40 16 12 6 21 7 21 3 0 -4 4 -3 8 2 4 6 28 20 54 33 26 13 50 27 53 33 4 5
11 7 16 4 5 -4 9 -2 9 4 0 5 8 12 18 15 17 6 47 31 129 106 51 47 126 154 161
230 13 30 36 102 50 160 14 58 31 112 38 121 8 8 14 20 14 25 0 5 24 34 53 65
94 99 134 213 124 348 -7 90 -52 189 -122 266 -25 28 -50 55 -55 61 -18 23
-41 91 -66 189 -30 122 -68 206 -131 288 -66 85 -164 169 -249 212 -22 11 -41
22 -44 25 -12 12 -51 30 -65 30 -8 0 -15 5 -15 11 0 5 -4 8 -9 4 -5 -3 -12 -1
-16 5 -4 6 -11 8 -16 4 -5 -3 -16 0 -24 6 -8 7 -15 9 -15 5 0 -4 -6 -3 -12 2
-7 6 -21 9 -30 8 -10 -2 -18 0 -18 5 0 12 -212 2 -227 -10 -2 -2 -6 -3 -10 -5
-5 -1 -21 -7 -36 -13 -16 -7 -31 -12 -34 -12 -3 0 -35 -21 -71 -47 -37 -27
-73 -51 -82 -54 -29 -11 -85 24 -190 121 -23 21 -52 40 -72 46 -10 4 -18 10
-18 15 0 5 -3 8 -7 7 -5 -1 -34 8 -65 20 -32 12 -73 23 -90 24 -18 1 -41 5
-50 10 -10 5 -19 4 -23 -2 -3 -5 -15 -6 -28 -1 -12 5 -32 5 -45 0 -13 -5 -21
-5 -18 0 16 26 -189 -54 -213 -83 -7 -9 -19 -16 -25 -16 -6 0 -28 -18 -49 -40
-20 -22 -42 -40 -47 -40 -6 0 -10 -4 -10 -10 0 -5 -10 -8 -22 -6 -13 3 -28 5
-34 5 -6 1 -31 19 -54 41 -23 22 -47 40 -52 40 -5 0 -6 5 -3 10 3 6 1 10 -5
10 -12 0 -73 41 -78 53 -2 4 -10 7 -18 7 -8 0 -26 7 -39 16 -14 9 -25 13 -25
9 0 -4 -6 -3 -12 3 -20 16 -191 36 -203 23z"/>
</g>
</svg>
