<svg xmlns="http://www.w3.org/2000/svg" width="19" height="19" viewBox="0 0 19 19">
  <g id="Group_200" data-name="Group 200" transform="translate(-76 -42.5)">
    <path id="Path_88" class="active" data-name="Path 88" d="M89,48.5a3.179,3.179,0,0,1-.06.62,3.478,3.478,0,0,1-1.3,2.15A3.591,3.591,0,0,1,85.5,52a3.5,3.5,0,0,1-3.44-2.88A3.179,3.179,0,0,1,82,48.5a3.472,3.472,0,0,1,2.04-3.17,3.395,3.395,0,0,1,2.92,0A3.472,3.472,0,0,1,89,48.5Z" fill="none" stroke="#000" stroke-linecap="round" stroke-linejoin="round" stroke-width="1"/>
    <path id="Path_89" class="active" data-name="Path 89" d="M90.5,57.5V61h-10V57.5a.34.34,0,0,1,.01-.1A3.488,3.488,0,0,1,84,54h3a3.488,3.488,0,0,1,3.49,3.4A.34.34,0,0,1,90.5,57.5Z" fill="none" stroke="#000" stroke-linecap="round" stroke-linejoin="round" stroke-width="1"/>
    <path id="Path_90" data-name="Path 90" d="M82,48.5a3.179,3.179,0,0,0,.06.62A3.105,3.105,0,0,1,81,49.3a3.15,3.15,0,1,1,3.04-3.97A3.472,3.472,0,0,0,82,48.5Z" fill="none" stroke="#000" stroke-linecap="round" stroke-linejoin="round" stroke-width="1"/>
    <path id="Path_91" data-name="Path 91" d="M85.43,54H84a3.488,3.488,0,0,0-3.49,3.4H76.5V54.25a3.15,3.15,0,0,1,3.15-3.15h1.01a5.453,5.453,0,0,0,1.46,1.74,5.774,5.774,0,0,0,1.54.85,5.191,5.191,0,0,0,1.5.3A2.437,2.437,0,0,0,85.43,54Z" fill="none" stroke="#000" stroke-linecap="round" stroke-linejoin="round" stroke-width="1"/>
    <path id="Path_92" data-name="Path 92" d="M93.15,46.15A3.15,3.15,0,0,1,90,49.3a3.105,3.105,0,0,1-1.06-.18A3.179,3.179,0,0,0,89,48.5a3.472,3.472,0,0,0-2.04-3.17,3.149,3.149,0,0,1,6.19.82Z" fill="none" stroke="#000" stroke-linecap="round" stroke-linejoin="round" stroke-width="1"/>
    <path id="Path_93" data-name="Path 93" d="M94.5,54.25V57.4H90.49A3.488,3.488,0,0,0,87,54H85.57c.09,0,.18-.01.27-.01a4.954,4.954,0,0,0,1.51-.32,5.132,5.132,0,0,0,1.51-.82,5.321,5.321,0,0,0,1.48-1.75h1.01A3.15,3.15,0,0,1,94.5,54.25Z" fill="none" stroke="#000" stroke-linecap="round" stroke-linejoin="round" stroke-width="1"/>
  </g>
</svg>
