<?xml version="1.0" standalone="no"?>
<!DOCTYPE svg PUBLIC "-//W3C//DTD SVG 20010904//EN"
 "http://www.w3.org/TR/2001/REC-SVG-20010904/DTD/svg10.dtd">
<svg version="1.0" xmlns="http://www.w3.org/2000/svg"
 width="698.000000pt" height="698.000000pt" viewBox="0 0 698.000000 698.000000"
 preserveAspectRatio="xMidYMid meet">
<metadata>
Created by potrace 1.11, written by Peter Selinger 2001-2013
</metadata>
<g transform="translate(0.000000,698.000000) scale(0.100000,-0.100000)"
fill="#000000" stroke="none">
<path d="M2946 6468 c-19 -41 -148 -384 -188 -498 -16 -47 -36 -101 -45 -120
-9 -19 -31 -76 -48 -127 -17 -50 -37 -98 -44 -106 -6 -8 -11 -19 -10 -23 2
-10 -2 -22 -32 -96 -10 -26 -19 -55 -19 -65 0 -11 -4 -23 -9 -28 -9 -10 -71
-164 -97 -245 -9 -25 -22 -60 -31 -79 -8 -18 -19 -45 -23 -60 -5 -14 -23 -64
-40 -111 -18 -47 -35 -96 -37 -110 -3 -14 -9 -30 -14 -35 -4 -6 -22 -49 -39
-95 -40 -109 -97 -262 -119 -320 -10 -25 -21 -52 -24 -60 -3 -8 -15 -44 -28
-80 -12 -36 -41 -107 -65 -157 -24 -51 -44 -97 -44 -101 0 -5 -9 -26 -19 -48
-19 -38 -50 -146 -55 -189 -1 -11 -9 -36 -18 -56 -9 -20 -19 -47 -23 -60 -4
-13 -13 -37 -20 -54 -7 -16 -22 -55 -33 -85 -11 -30 -23 -64 -28 -75 -4 -11
-9 -29 -11 -39 -2 -11 -7 -24 -12 -30 -5 -6 -12 -22 -16 -36 -13 -48 -50 -135
-60 -142 -5 -4 -7 -8 -3 -8 6 0 -10 -55 -39 -130 -4 -8 -5 -21 -4 -27 1 -7 -2
-13 -7 -13 -5 0 -15 -18 -22 -40 -7 -22 -17 -40 -22 -40 -5 0 -6 -5 -3 -11 7
-10 -2 -40 -36 -116 -11 -24 -19 -47 -19 -53 0 -5 -9 -24 -19 -42 -11 -17 -18
-35 -15 -40 5 -7 -2 -26 -42 -113 -8 -19 -14 -23 -14 -12 0 13 -9 17 -39 17
-22 0 -43 -4 -46 -10 -3 -5 -15 -10 -25 -10 -10 0 -20 -4 -22 -8 -1 -5 -15
-12 -29 -15 l-27 -7 12 63 c13 69 11 97 -8 97 -20 0 -36 -22 -36 -49 l0 -26
-28 30 c-16 17 -27 33 -25 36 1 4 -12 9 -30 12 -17 3 -40 8 -49 12 -26 10 -24
-44 3 -89 21 -37 19 -59 -6 -50 -8 4 -38 0 -66 -6 -64 -15 -110 -60 -133 -127
-19 -56 -21 -181 -3 -240 15 -49 85 -160 107 -167 8 -3 29 -14 46 -24 38 -22
106 -19 97 4 -6 17 9 18 25 2 9 -9 12 -8 12 5 0 20 23 32 40 22 13 -8 -24 -60
-79 -112 -39 -37 -131 -76 -170 -71 -14 1 -31 0 -36 -3 -20 -11 -87 -10 -101
2 -10 8 -14 8 -14 0 0 -6 -18 -11 -45 -11 l-45 0 0 -147 0 -148 862 5 c475 3
864 6 866 8 7 7 0 100 -8 108 -6 6 -8 19 -4 28 5 14 9 15 15 4 13 -20 12 14
-2 49 -7 19 -7 29 0 31 6 2 11 20 11 40 0 25 -3 33 -9 23 -5 -7 -14 -10 -20
-7 -6 4 -9 12 -6 17 9 14 -57 11 -101 -4 -43 -15 -212 -12 -231 3 -2 2 -6 3
-10 5 -5 1 -29 8 -55 15 -27 8 -48 17 -48 21 0 4 -11 10 -25 13 -37 9 -71 47
-82 91 -6 22 -11 31 -12 20 -1 -19 -1 -19 -14 0 -8 11 -15 38 -15 59 -1 22 -6
44 -12 50 -5 5 -10 19 -9 31 0 20 0 20 10 0 8 -17 8 -16 3 5 -14 55 -16 110
-4 110 7 0 10 7 6 15 -3 8 -1 15 4 15 10 0 26 84 22 118 -2 12 2 22 8 22 5 0
10 15 10 33 0 22 3 28 9 18 7 -11 10 -10 15 5 3 11 5 22 3 25 -1 3 4 13 11 21
11 14 19 54 21 106 1 7 6 10 12 7 6 -4 9 -1 7 6 -4 21 22 106 54 177 15 34 28
70 28 80 0 10 4 22 9 27 4 6 19 39 31 75 46 132 65 185 73 198 7 10 83 12 345
12 185 0 339 0 342 1 26 5 103 2 107 -5 3 -4 9 -2 14 5 6 10 9 11 9 2 0 -7 10
-12 23 -12 12 1 31 -2 41 -6 14 -6 17 -5 12 3 -6 9 105 12 465 11 260 -1 478
-3 485 -6 7 -3 16 -19 20 -36 3 -18 10 -36 14 -42 4 -5 10 -21 13 -35 3 -14
15 -50 26 -80 92 -254 99 -278 88 -289 -8 -8 -7 -11 5 -11 9 0 18 -8 21 -17 4
-10 16 -43 28 -73 11 -30 22 -62 23 -70 1 -8 8 -25 14 -37 7 -13 9 -23 4 -23
-4 0 -8 -9 -8 -19 0 -11 4 -17 8 -15 4 3 8 -1 8 -8 0 -10 3 -9 11 2 8 11 9 8
4 -13 -4 -21 -3 -27 6 -21 8 5 10 2 7 -8 -9 -23 12 -114 23 -97 10 16 12 3 10
-66 -1 -22 2 -54 8 -71 5 -19 5 -37 -1 -49 -8 -13 -8 -16 2 -10 9 6 12 0 8
-23 -3 -23 0 -32 11 -35 10 -3 7 -5 -6 -6 -14 -1 -23 5 -23 14 0 8 -7 15 -15
15 -8 0 -25 6 -36 12 -17 10 -23 11 -26 1 -3 -7 -11 -13 -19 -13 -7 0 -28 -8
-47 -19 -18 -10 -48 -22 -65 -26 -29 -6 -32 -4 -32 17 0 16 3 19 9 10 11 -18
24 29 14 54 -4 10 -2 15 3 11 6 -3 16 3 23 15 7 11 8 17 2 13 -10 -5 -16 21
-12 48 0 4 -13 7 -30 7 -23 0 -32 -5 -36 -21 -5 -16 -8 -18 -15 -7 -7 9 -8 5
-5 -15 2 -15 0 -27 -4 -27 -5 0 -9 6 -9 13 0 29 -85 91 -139 101 l-34 6 7 -38
c8 -52 32 -97 64 -122 21 -17 24 -23 12 -30 -8 -5 -28 -9 -45 -8 -45 1 -116
-12 -148 -29 -63 -32 -122 -159 -115 -249 2 -24 1 -43 -2 -41 -8 5 -95 45
-219 100 -62 28 -119 50 -127 50 -8 0 -14 6 -14 14 0 7 -4 13 -9 13 -4 0 -20
12 -35 26 -14 15 -26 23 -26 18 0 -5 -4 -3 -8 4 -6 9 -15 10 -33 3 -13 -5 -18
-10 -11 -10 7 -1 10 -6 7 -11 -4 -6 -11 -8 -16 -5 -15 10 -11 0 11 -25 11 -13
26 -20 35 -16 8 3 15 2 15 -3 0 -5 -12 -11 -27 -14 -16 -3 -35 -7 -44 -9 -18
-4 -85 -58 -72 -58 5 0 14 5 21 12 12 12 17 2 13 -30 -1 -8 12 -12 39 -12 22
0 40 -3 40 -6 0 -3 -9 -19 -21 -35 -14 -20 -16 -29 -7 -29 9 0 9 -3 2 -8 -15
-9 -19 -158 -4 -167 5 -3 8 -10 5 -15 -3 -5 2 -15 11 -24 8 -9 12 -21 8 -27
-4 -8 -3 -9 4 -5 7 4 12 1 12 -8 0 -9 4 -15 9 -13 11 3 66 -55 63 -66 -1 -5 2
-6 8 -2 9 6 71 -31 78 -46 2 -4 12 -5 23 -2 10 3 25 0 33 -6 7 -6 49 -16 92
-21 122 -16 215 1 293 52 31 21 47 26 54 19 19 -19 90 -12 134 13 61 35 203
61 203 38 0 -13 48 -32 65 -26 10 4 15 0 15 -10 0 -12 10 -16 45 -16 25 0 45
3 45 8 0 4 13 21 28 37 49 53 63 77 50 92 -6 7 -7 13 -2 14 5 0 137 1 293 2
l284 2 42 100 c38 93 100 218 160 325 13 24 21 47 16 50 -15 10 -58 95 -54
108 3 6 0 12 -7 12 -6 0 -8 5 -5 10 3 6 3 10 -2 10 -4 0 -14 15 -21 32 -7 18
-19 46 -27 61 -8 16 -15 34 -15 42 0 7 -11 38 -25 69 -14 31 -25 65 -25 75 0
11 -3 21 -7 23 -13 5 -46 101 -46 131 0 16 -5 27 -13 27 -8 0 -14 8 -15 18 -1
26 -5 39 -49 157 -22 61 -54 148 -69 195 -16 47 -52 146 -81 220 -29 74 -67
178 -85 230 -52 151 -96 272 -109 305 -8 17 -21 55 -31 85 -10 30 -26 73 -35
95 -10 22 -21 51 -25 65 -3 14 -15 44 -26 67 -10 24 -19 47 -19 53 0 6 -4 18
-9 28 -9 19 -13 28 -81 227 -26 77 -54 154 -61 170 -7 17 -13 33 -13 37 -1 3
-4 10 -8 14 -5 4 -8 15 -8 25 0 10 -11 44 -24 76 -13 32 -37 92 -52 133 -15
41 -31 79 -36 84 -4 6 -8 18 -8 28 0 10 -4 18 -10 18 -5 0 -10 7 -10 16 0 8
-3 13 -7 11 -5 -3 -9 5 -10 16 -3 40 -11 74 -21 93 -6 10 -18 46 -27 79 -9 33
-20 67 -25 77 -10 17 -63 161 -100 268 -13 35 -30 80 -38 100 -9 19 -21 53
-28 75 -6 22 -24 72 -39 110 -15 39 -38 102 -51 140 -13 39 -28 78 -34 87 -5
10 -10 25 -10 33 0 8 -5 15 -11 15 -5 0 -7 4 -4 10 3 5 -3 31 -14 56 -12 26
-21 52 -21 58 0 6 -6 23 -14 37 -7 15 -21 51 -31 80 -10 30 -23 68 -30 84 -7
17 -23 59 -37 95 l-24 65 -276 3 -277 2 -15 -32z m154 -655 c0 -25 54 -224
114 -423 37 -124 170 -516 191 -565 7 -16 15 -39 18 -50 3 -11 21 -65 41 -120
21 -55 48 -134 62 -175 14 -41 31 -88 39 -105 15 -34 65 -218 65 -238 0 -8 8
-22 19 -31 10 -9 24 -38 31 -64 6 -26 15 -56 20 -67 4 -11 20 -50 34 -86 15
-36 26 -70 25 -75 -1 -5 2 -20 8 -34 37 -87 45 -109 39 -118 -3 -6 -1 -12 5
-14 6 -2 21 -31 34 -65 l22 -61 -26 -4 c-14 -2 -192 -3 -396 -2 -787 5 -908 5
-968 -1 -46 -5 -67 -3 -81 8 -16 12 -23 12 -48 -1 -41 -20 -54 -5 -38 42 6 20
15 36 19 36 4 0 7 9 8 20 2 30 46 144 59 155 6 6 14 28 17 51 2 22 17 67 32
100 15 32 40 86 55 119 16 33 36 87 45 120 18 65 110 346 125 383 18 40 28 66
50 127 12 33 35 94 51 135 16 41 29 80 29 86 0 6 7 17 15 24 8 7 12 16 9 21
-2 5 6 37 20 71 14 35 32 86 41 113 9 28 20 59 24 70 18 44 44 123 58 175 24
92 53 192 72 255 11 33 25 93 32 133 7 39 17 72 21 72 4 0 8 -8 8 -17z"/>
<path d="M3117 5349 c7 -7 15 -10 18 -7 3 3 -2 9 -12 12 -14 6 -15 5 -6 -5z"/>
<path d="M2320 3576 c0 -2 7 -7 16 -10 8 -3 12 -2 9 4 -6 10 -25 14 -25 6z"/>
<path d="M5000 2459 c0 -5 5 -7 10 -4 6 3 10 8 10 11 0 2 -4 4 -10 4 -5 0 -10
-5 -10 -11z"/>
<path d="M1832 2170 c0 -14 2 -19 5 -12 2 6 2 18 0 25 -3 6 -5 1 -5 -13z"/>
<path d="M3101 1544 c0 -11 3 -14 6 -6 3 7 2 16 -1 19 -3 4 -6 -2 -5 -13z"/>
<path d="M5674 1229 c-10 -16 17 -89 42 -114 l25 -25 -33 0 c-93 0 -175 -57
-203 -140 -23 -70 -21 -193 5 -262 23 -61 86 -140 131 -163 39 -21 83 -19 130
6 43 22 60 19 39 -5 -6 -9 -10 -21 -7 -28 3 -7 12 4 21 24 11 26 21 36 31 32
8 -4 12 -10 9 -15 -3 -5 4 -9 16 -9 12 0 18 5 15 10 -9 14 0 13 43 -6 20 -9
31 -18 25 -21 -7 -3 -13 -9 -13 -14 0 -6 8 -6 19 1 11 5 33 10 50 10 63 0 128
86 161 215 23 89 25 132 9 204 -13 62 -42 105 -97 148 -53 40 -96 43 -167 8
-27 -13 -53 -21 -57 -17 -4 4 0 34 8 66 18 68 13 89 -18 84 -17 -2 -24 -11
-28 -35 l-5 -33 -33 34 c-32 34 -107 62 -118 45z"/>
<path d="M5847 502 c-19 -20 -23 -52 -7 -52 6 0 10 11 10 25 0 16 6 25 15 25
8 0 15 5 15 10 0 16 -15 12 -33 -8z"/>
<path d="M5770 501 c0 -6 5 -13 10 -16 6 -3 10 1 10 9 0 9 -4 16 -10 16 -5 0
-10 -4 -10 -9z"/>
<path d="M5890 501 c0 -5 6 -11 13 -14 9 -3 9 -8 -2 -21 -8 -9 -10 -20 -6 -24
4 -4 10 -1 12 6 6 17 28 15 47 -4 9 -8 16 -11 16 -6 0 5 -11 17 -25 26 -14 9
-23 21 -20 25 3 5 -2 12 -11 15 -21 8 -24 8 -24 -3z"/>
<path d="M5747 439 c7 -7 15 -10 18 -7 3 3 -2 9 -12 12 -14 6 -15 5 -6 -5z"/>
<path d="M5810 430 c0 -5 7 -7 15 -4 8 4 15 8 15 10 0 2 -7 4 -15 4 -8 0 -15
-4 -15 -10z"/>
<path d="M5890 420 c0 -6 7 -10 15 -10 8 0 15 2 15 4 0 2 -7 6 -15 10 -8 3
-15 1 -15 -4z"/>
<path d="M5945 389 c-4 -6 -5 -12 -2 -15 2 -3 7 2 10 11 7 17 1 20 -8 4z"/>
</g>
</svg>
