<svg xmlns="http://www.w3.org/2000/svg" width="17.5" height="17.5" viewBox="0 0 17.5 17.5">
  <g id="Group_950" data-name="Group 950" transform="translate(-953.25 -970.25)">
    <g id="Group_196" data-name="Group 196" transform="translate(623.636 943)">
      <path id="Path_73" data-name="Path 73" d="M4436.15,63.75a.748.748,0,0,1-.53-.22l-8-8a.75.75,0,0,1,0-1.061l8-8a.75.75,0,0,1,1.061,1.061L4429.21,55l7.47,7.47a.75.75,0,0,1-.53,1.28Z" transform="translate(-4097.786 -19)" fill="#1f2659"/>
    </g>
    <path id="Path_2033" data-name="Path 2033" d="M5412,14490.75h-16a.75.75,0,0,1,0-1.5h16a.75.75,0,0,1,0,1.5Z" transform="translate(-4442 -13511)" fill="#1f2659"/>
  </g>
</svg>
