<svg xmlns="http://www.w3.org/2000/svg" width="15.631" height="15.009" viewBox="0 0 15.631 15.009">
  <path id="Path_1981" data-name="Path 1981" d="M65.552,20.756,66.7,20.11a.861.861,0,0,1,1.2.392l.552,1.2a.863.863,0,0,0,.682.495l1.311.155a.862.862,0,0,1,.745,1.024l-.259,1.294a.862.862,0,0,0,.261.8l.969.9a.861.861,0,0,1,0,1.266l-.969.9a.862.862,0,0,0-.261.8l.259,1.294a.862.862,0,0,1-.745,1.024l-1.311.155a.863.863,0,0,0-.682.495l-.552,1.2a.861.861,0,0,1-1.2.392l-1.151-.646a.863.863,0,0,0-.844,0l-1.151.646a.862.862,0,0,1-1.2-.392L61.8,32.3a.863.863,0,0,0-.682-.495l-1.311-.155a.86.86,0,0,1-.744-1.024l.258-1.294a.86.86,0,0,0-.261-.8l-.969-.9a.861.861,0,0,1,0-1.266l.969-.9a.86.86,0,0,0,.261-.8l-.258-1.294a.86.86,0,0,1,.744-1.024l1.311-.155A.863.863,0,0,0,61.8,21.7l.552-1.2a.862.862,0,0,1,1.2-.392l1.151.646A.863.863,0,0,0,65.552,20.756Z" transform="translate(-57.314 -19.495)" fill="none" stroke="#1f2659" stroke-linecap="round" stroke-linejoin="round" stroke-width="1"/>
</svg>
