<svg xmlns="http://www.w3.org/2000/svg" width="16" height="16" viewBox="0 0 16 16">
  <g id="Group_1012" data-name="Group 1012" transform="translate(-15 -15440.634)">
    <path id="Path_2013" data-name="Path 2013" d="M32.4,44.077a.75.75,0,0,1-.75-.75V40.2a.75.75,0,0,1,1.5,0v3.127A.75.75,0,0,1,32.4,44.077Z" transform="translate(-9.4 15405.233)" fill="#7d7d7d"/>
    <path id="Path_2014" data-name="Path 2014" d="M32.4,47.4a1,1,0,1,1,1-1A1,1,0,0,1,32.4,47.4Z" transform="translate(-9.4 15405.233)" fill="#7d7d7d"/>
    <path id="Path_2015" data-name="Path 2015" d="M32.4,51.4a8,8,0,1,1,8-8A8.009,8.009,0,0,1,32.4,51.4Zm0-14.5a6.5,6.5,0,1,0,6.5,6.5A6.508,6.508,0,0,0,32.4,36.9Z" transform="translate(-9.4 15405.233)" fill="#7d7d7d"/>
  </g>
</svg>
