<svg xmlns="http://www.w3.org/2000/svg" width="539.701" height="341.484" viewBox="0 0 539.701 341.484">
  <path id="Path_2166" data-name="Path 2166" d="M568.4,244.16h0c2.238-.559,5.039-1.121,7.84-1.68,13.441-2.8,36.961-9.52,26.879-27.441-15.68-28-53.2-22.961-81.762-15.121V198.8c.559-6.16-.559-14-3.359-19.6-8.4-15.68-27.441-12.32-42-8.4a101.593,101.593,0,0,0-16.8,6.16c1.121-5.039,2.8-9.52,3.359-14.559,2.8-13.441,4.48-28.559-9.52-35.84-13.441-7.281-25.762,1.68-28.559,15.121-1.121,5.6-1.68,11.762-2.238,17.359-.559-.559-.559-1.121-1.121-1.68-6.719-10.078-16.8-24.641-30.8-17.359-4.48,2.238-6.719,5.039-7.84,8.4-12.879-14-26.879-28.559-44.238-35.281-10.078-3.922-21.84-5.039-27.441,6.16-5.039,10.078,0,21.84,7.281,29.68l3.359,3.359a200.624,200.624,0,0,1-33.039-20.16c-10.641-8.4-27.441-15.121-39.762-5.039-11.2,9.519-3.359,23.52,6.16,30.238-31.922,3.922-63.281,14.559-92.4,29.68-36.961,18.48-72.8,48.16-80.641,90.719-7.84,42,15.121,80.078,48.16,104.16,36.4,26.32,83.441,39.2,126.56,49.281,47.039,11.2,94.641,16.8,142.8,19.6,46.48,2.238,94.078,1.68,139.44-9.52,19.6-5.039,39.762-11.762,55.441-24.641s23.52-31.359,25.2-50.961c4.481-45.914-18.48-92.395-50.961-121.52Zm21.84,138.32c-8.4,15.68-25.2,23.52-41.441,29.121-39.2,12.879-81.2,15.68-122.64,14.559-43.121-1.121-86.238-5.039-128.8-12.879-40.879-7.281-82.32-17.359-119.84-34.16-32.48-14.559-67.2-39.2-71.68-77.281-5.035-39.762,26.324-71.121,57.684-89.039,36.961-21.281,78.4-34.719,120.96-34.16-2.8,6.16-1.68,12.32,4.48,16.8,15.121,10.078,33.039,10.641,50.4,8.961a457.852,457.852,0,0,0,47.039-7.84c-8.961,5.6-15.121,15.121-10.641,26.32C381.92,238,406,237.442,419.44,238c15.121,1.121,33.039,2.238,46.48-5.6,11.2,13.441,26.32,30.238,43.121,25.2,10.078-2.8,10.641-12.32,7.84-20.16,5.6,2.8,11.2,6.16,16.8,9.52,29.68,19.039,50.961,49.84,59.359,84,3.922,16.8,5.039,36.4-2.8,51.52Zm-408.8-92.961c-15.68,0-15.68-24.078,0-24.078S197.12,289.519,181.44,289.519ZM347.2,346.64c0,6.16-5.6,12.879-12.32,12.32-15.121-2.238-45.359-1.121-47.039-21.84-.559-11.2,1.68-22.961,2.238-33.6,1.121-11.762,1.68-24.078,2.8-35.84,1.121-15.68,25.2-15.68,24.078,0-1.121,16.8-2.8,33.6-3.922,49.84-.559,3.922,0,9.52-1.121,13.441,6.16-1.121,15.68,2.8,21.84,3.359,7.848,1.121,13.445,5.6,13.445,12.32ZM476,322c-15.68,0-15.68-24.078,0-24.078C491.68,297.359,491.68,322,476,322Zm-96.321,84c-12.32-.559-24.641-1.68-36.961-2.238-15.68-1.121-15.68-25.2,0-24.078,12.32.559,24.641,1.68,36.961,2.238C394.8,383.038,395.359,407.12,379.679,406Z" transform="translate(-80.217 -110.363)" fill="#00469a"/>
</svg>
