<svg xmlns="http://www.w3.org/2000/svg" width="15" height="15" viewBox="0 0 15 15">
  <g id="Group_758" data-name="Group 758" transform="translate(-68 -4.5)">
    <path id="Path_1973" data-name="Path 1973" d="M78,9.5a2.734,2.734,0,0,1-.05.5,2.5,2.5,0,0,1-4.9,0A2.734,2.734,0,0,1,73,9.5,2.5,2.5,0,0,1,75.45,7h.1A2.5,2.5,0,0,1,78,9.5Z" fill="none" stroke="#1f2659" stroke-linecap="round" stroke-linejoin="round" stroke-width="1"/>
    <path id="Path_1974" data-name="Path 1974" d="M73,9.5a2.734,2.734,0,0,0,.05.5H73a2.5,2.5,0,1,1,2.45-3A2.5,2.5,0,0,0,73,9.5Z" fill="none" stroke="#1f2659" stroke-linecap="round" stroke-linejoin="round" stroke-width="1"/>
    <path id="Path_1975" data-name="Path 1975" d="M80.5,7.5A2.5,2.5,0,0,1,78,10h-.05A2.734,2.734,0,0,0,78,9.5,2.5,2.5,0,0,0,75.55,7a2.5,2.5,0,0,1,4.95.5Z" fill="none" stroke="#1f2659" stroke-linecap="round" stroke-linejoin="round" stroke-width="1"/>
    <path id="Path_1976" data-name="Path 1976" d="M80,16.5V19H71V16.5A2.5,2.5,0,0,1,73.5,14h4A2.5,2.5,0,0,1,80,16.5Z" fill="none" stroke="#1f2659" stroke-linecap="round" stroke-linejoin="round" stroke-width="1"/>
    <path id="Path_1977" data-name="Path 1977" d="M75.5,14h-2A2.5,2.5,0,0,0,71,16.5V17H68.5V14.5A2.5,2.5,0,0,1,71,12h.76a4.538,4.538,0,0,0,1.91,1.61A4.481,4.481,0,0,0,75.5,14Z" fill="none" stroke="#1f2659" stroke-linecap="round" stroke-linejoin="round" stroke-width="1"/>
    <path id="Path_1978" data-name="Path 1978" d="M82.5,14.5V17H80v-.5A2.5,2.5,0,0,0,77.5,14h-2a4.455,4.455,0,0,0,3.73-2H80A2.5,2.5,0,0,1,82.5,14.5Z" fill="none" stroke="#1f2659" stroke-linecap="round" stroke-linejoin="round" stroke-width="1"/>
  </g>
</svg>
