<svg xmlns="http://www.w3.org/2000/svg" width="117.646" height="127.858" viewBox="0 0 117.646 127.858">
  <g id="Group_1014" data-name="Group 1014" transform="translate(-4976.844 -14621.162)">
    <path id="top-left" class="blink-line" data-name="Path 2026" d="M187.257,90.434l8.374,5.4a1.956,1.956,0,0,0,.946.27,1.487,1.487,0,0,0,1.351-.81,1.605,1.605,0,0,0-.54-2.3l-8.374-5.4a1.668,1.668,0,0,0-1.757,2.836Z" transform="matrix(0.978, 0.208, -0.208, 0.978, 4842.446, 14507.375)" fill="#00469a"/>
    <path id="top-center" class="blink-line" data-name="Path 2027" d="M256.929,45.126a1.628,1.628,0,0,0,1.62,1.081.812.812,0,0,0,.54-.135,1.77,1.77,0,0,0,1.081-2.161L255.578,30.54a1.709,1.709,0,0,0-3.242,1.081Z" transform="matrix(0.978, 0.208, -0.208, 0.978, 4784.355, 14539.967)" fill="#00469a"/>
    <path id="top-right" class="blink-line" data-name="Path 2028" d="M328.458,50.242a.812.812,0,0,0,.54.135,1.463,1.463,0,0,0,1.486-1.081l3.376-9.319a1.668,1.668,0,1,0-3.107-1.215l-3.377,9.319A1.773,1.773,0,0,0,328.458,50.242Z" transform="matrix(0.978, 0.208, -0.208, 0.978, 4729.871, 14521.913)" fill="#00469a"/>
    <path id="bottom-left" class="blink-line" data-name="Path 2029" d="M365.841,475.779a1.681,1.681,0,0,0-2.026,1.081l-2.837,9.454a1.681,1.681,0,0,0,1.081,2.026c.135,0,.27.135.54.135a1.7,1.7,0,0,0,1.62-1.215l2.837-9.454a1.768,1.768,0,0,0-1.215-2.026Z" transform="matrix(0.978, 0.208, -0.208, 0.978, 4774.125, 14190.854)" fill="#00469a"/>
    <path id="bottom-center" class="blink-line" data-name="Path 2030" d="M429.563,462.683a1.668,1.668,0,0,0-3.107,1.215l5.4,13.1a1.721,1.721,0,0,0,1.486,1.081,1.221,1.221,0,0,0,.676-.135,1.827,1.827,0,0,0,.946-2.161Z" transform="matrix(0.978, 0.208, -0.208, 0.978, 4723.214, 14190.937)" fill="#00469a"/>
    <path id="bottom-right" class="blink-line" data-name="Path 2031" d="M486.355,436.6l-8.644-4.862a1.692,1.692,0,0,0-1.62,2.971l8.644,4.862a1.924,1.924,0,0,0,.81.27,1.868,1.868,0,0,0,1.486-.81,1.9,1.9,0,0,0-.676-2.432Z" transform="matrix(0.978, 0.208, -0.208, 0.978, 4682.016, 14205.535)" fill="#00469a"/>
    <g id="right-hand">
      <path id="Path_2075" data-name="Path 2075" d="M20.874,188.385l0,.005c-2.283-2.971-6.312-3.647-10.609-1.891-1.075.405-2.686,1.081-4.566,1.891l7.789-21.474a7.534,7.534,0,0,0-.269-5.673,7.213,7.213,0,0,0-4.163-3.782,6.3,6.3,0,0,0-4.163-.135l.941-2.7a7.534,7.534,0,0,0-.269-5.673A7.213,7.213,0,0,0,1.4,145.171a7.318,7.318,0,0,0-9.267,4.322,8.021,8.021,0,0,0-3.358-2.566,7.477,7.477,0,0,0-9.4,4.457l-1.343,3.782a6.8,6.8,0,0,0-3.357-2.431,7.435,7.435,0,0,0-9.4,4.592l-3.909,11.048.092.076-6.641,17.137a28.872,28.872,0,0,0,.672,20.935,6.654,6.654,0,0,0,.4.946,14.583,14.583,0,0,0,1.747,2.965,26.413,26.413,0,0,0,12.624,10.674,27.5,27.5,0,0,0,10.207,2.026,24.934,24.934,0,0,0,14.366-4.592c1.241-.892,2.966-2.191,4.91-3.685l.089.078c6.679-5.22,19-15.565,19.836-16.286A7.46,7.46,0,0,0,20.874,188.385Zm-3.313,7.66-.056.045h.012c-.123.123-13.753,11.452-20.279,16.579l.014.012c-1.649,1.28-3.1,2.389-4.156,3.166a22.449,22.449,0,0,1-21.489,2.161v.021c-12.092-4.862-18-18.639-13.572-31.327l6.13-16.03.08.065,1.069-3.067.123-.322-.01-.005,3.069-8.8a4.109,4.109,0,0,1,5.1-2.566A4.75,4.75,0,0,1-24.121,158a4.154,4.154,0,0,1,.134,3.106l-4.835,13.776a1.827,1.827,0,0,0,.941,2.161c.134,0,.4.135.537.135a1.746,1.746,0,0,0,1.611-1.081l4.835-13.776c0-.135,0-.135.134-.27l3.357-9.319a4.109,4.109,0,0,1,5.1-2.566,4.75,4.75,0,0,1,2.283,2.026,4.481,4.481,0,0,1,.134,3.242l-.134.4-6.715,19.584a1.771,1.771,0,0,0,1.075,2.161c.134,0,.4.135.537.135a1.746,1.746,0,0,0,1.611-1.081l6.984-19.989,2.014-5.673a4.109,4.109,0,0,1,5.1-2.566,4.75,4.75,0,0,1,2.283,2.026A4.154,4.154,0,0,1,3,153.542l-2.955,8.1c-.134.27-.134.4-.269.675,0,.135,0,.27-.134.27L-6.4,179.335a1.827,1.827,0,0,0,.941,2.161c.134,0,.4.135.537.135a1.746,1.746,0,0,0,1.611-1.081L3,162.992a4.237,4.237,0,0,1,4.969-2.3,4.75,4.75,0,0,1,2.283,2.026,4.154,4.154,0,0,1,.134,3.106L1.524,190.007c-1.477.54-2.821,1.081-3.492,1.351-8.461-3.242-13.027.54-16.788,3.511a1.693,1.693,0,0,0-.269,2.3,1.67,1.67,0,0,0,2.283.27c3.626-2.971,6.984-5.807,14.1-2.837a1.865,1.865,0,0,0,1.208,0c.4-.135,9.67-3.782,12.893-5.133,1.746-.675,4.969-1.62,6.715.81A4.1,4.1,0,0,1,17.561,196.045Z" transform="translate(5072.103 14498.607)" fill="#00469a"/>
    </g>
    <g id="left-hand" data-name="Group 1013">
      <path id="Path_2073" data-name="Path 2073" d="M-23.893,290.353a6.606,6.606,0,0,0,.4-.946,28.872,28.872,0,0,0,.672-20.935l-7.12-18.368-2.016-4.858-2.012-5.128a7.449,7.449,0,0,0-3.894-4.187,6.762,6.762,0,0,0-5.372-.135,7.614,7.614,0,0,0-3.223,2.566l-1.477-3.647a7.449,7.449,0,0,0-3.894-4.187,6.762,6.762,0,0,0-5.372-.135,7.614,7.614,0,0,0-3.223,2.566,7.881,7.881,0,0,0-3.894-3.916,6.762,6.762,0,0,0-5.372-.135,7.5,7.5,0,0,0-4.029,9.59l1.075,2.7a6.863,6.863,0,0,0-4.029.27,7.5,7.5,0,0,0-4.029,9.59l9.536,24.311-5.774-3.511a7.517,7.517,0,0,0-5.238-1.351,6.855,6.855,0,0,0-4.7,2.971,7.644,7.644,0,0,0,1.611,10.264c1.206,1.212,16.785,13.637,22.425,17.689a24.923,24.923,0,0,0,14.371,4.587,27.484,27.484,0,0,0,10.207-2.026,26.41,26.41,0,0,0,12.623-10.669A14.551,14.551,0,0,0-23.893,290.353Z" transform="translate(5065.021 14422.854)" fill="#fff"/>
      <path id="Path_2073-2" data-name="Path 2073" d="M-84.152,108.335a6.607,6.607,0,0,0,.4-.946,28.872,28.872,0,0,0,.672-20.935L-90.2,68.086l-2.016-4.858L-94.228,58.1a7.446,7.446,0,0,0-3.894-4.187,6.758,6.758,0,0,0-5.372-.135,7.614,7.614,0,0,0-3.223,2.566l-1.477-3.647a7.446,7.446,0,0,0-3.894-4.187,6.758,6.758,0,0,0-5.372-.135,7.614,7.614,0,0,0-3.223,2.566,7.877,7.877,0,0,0-3.894-3.916,6.758,6.758,0,0,0-5.372-.135,7.5,7.5,0,0,0-4.029,9.59l1.075,2.7a6.864,6.864,0,0,0-4.029.27,7.5,7.5,0,0,0-4.029,9.59l9.536,24.311-5.774-3.511a7.517,7.517,0,0,0-5.238-1.351,6.855,6.855,0,0,0-4.7,2.971,7.644,7.644,0,0,0,1.611,10.264c1.206,1.212,16.785,13.637,22.425,17.689A24.926,24.926,0,0,0-108.73,124a27.5,27.5,0,0,0,10.207-2.026A26.412,26.412,0,0,0-85.9,111.305,14.552,14.552,0,0,0-84.152,108.335Zm-15.716,10.559,0-.021a22.449,22.449,0,0,1-21.489-2.161c-5.506-4.052-21.621-17.018-21.755-17.153a4.4,4.4,0,0,1-.941-5.807,3.708,3.708,0,0,1,2.552-1.62,4.026,4.026,0,0,1,2.821.676.131.131,0,0,1,.134.128v.007l10.073,6.077a1.589,1.589,0,0,0,2.191-.494A1.591,1.591,0,0,0-126.192,97l-11.416-28.9a4.039,4.039,0,0,1,2.149-5.267,3.725,3.725,0,0,1,2.686.135,5.038,5.038,0,0,1,2.283,2.161l6.043,15.667a1.712,1.712,0,0,0,1.477,1.081.8.8,0,0,0,.537-.135,1.768,1.768,0,0,0,.941-2.161L-127.4,64.451v-.135c0-.135-.134-.27-.134-.405l-3.223-8.374a4.039,4.039,0,0,1,2.149-5.267,3.745,3.745,0,0,1,2.955,0,4.019,4.019,0,0,1,2.149,2.3l2.149,5.673,6.984,18.234a1.712,1.712,0,0,0,1.477,1.081.8.8,0,0,0,.537-.135,1.768,1.768,0,0,0,.941-2.161l-6.715-17.693-.134-.4a4.039,4.039,0,0,1,2.149-5.267,3.745,3.745,0,0,1,2.955,0,4.019,4.019,0,0,1,2.149,2.3l3.626,9.184c0,.135,0,.135.134.27l4.835,12.831a1.659,1.659,0,0,0,2.152.937,1.66,1.66,0,0,0,.938-2.152L-104.3,62.436a4.039,4.039,0,0,1,2.149-5.267,3.745,3.745,0,0,1,2.955,0,4.019,4.019,0,0,1,2.149,2.3L-86.3,87.562C-81.871,100.255-87.78,114.032-99.868,118.894Z" transform="translate(5125.28 14604.872)" fill="#00469a"/>
    </g>
  </g>
</svg>
