<svg xmlns="http://www.w3.org/2000/svg" width="540.091" height="454.998" viewBox="0 0 540.091 454.998">
  <path id="Path_2169" data-name="Path 2169" d="M623.16,156.8H618.8c-245.16-9.957-249.51,140-249.51,140C355.606,102.04,83.074,63.46,83.074,63.46c52.266,252,278.13,252,278.13,252l-8.09,197.87c28.621,13.688,47.289-4.355,47.289-4.355-11.2-4.977-22.4-194.13-22.4-194.13C592.676,308,623.166,156.8,623.166,156.8ZM121.03,97.066s177.33,120.09,204.09,168.62c0,0-194.14-153.07-204.09-168.62Zm448.62,87.113s-146.22,96.445-159.29,100.18c-.621,0,117.6-90.848,159.29-100.18Z" transform="translate(-83.074 -63.461)" fill="#00469a" fill-rule="evenodd"/>
</svg>
