<svg id="Group_400" data-name="Group 400" xmlns="http://www.w3.org/2000/svg" width="74.965" height="19" viewBox="0 0 74.965 19">
  <path id="Path_1896" data-name="Path 1896" d="M38.9,34.066a7.824,7.824,0,0,0-.285-.853A5.214,5.214,0,0,0,36.636,30.8a6.451,6.451,0,0,0-3.576-.889,7.578,7.578,0,0,0-3.6.841,6.4,6.4,0,0,0-2.517,2.335,6.546,6.546,0,0,0-.934,3.536,6.68,6.68,0,0,0,.916,3.5A6.426,6.426,0,0,0,29.4,42.468a7.2,7.2,0,0,0,3.469.841,6.455,6.455,0,0,0,2.918-.609,5.417,5.417,0,0,0,1.966-1.6,7.024,7.024,0,0,0,1.112-2.17c.01-.033.017-.066.027-.1v.886c0,.5.018,1.005.045,1.521s.1,1.112.187,1.783h3.122V30.193H38.9Zm-.6,4.7a3.917,3.917,0,0,1-1.708,1.445,6.154,6.154,0,0,1-2.633.516,5.111,5.111,0,0,1-2.357-.516,3.891,3.891,0,0,1-1.592-1.432,4.051,4.051,0,0,1-.569-2.157,3.913,3.913,0,0,1,1.192-2.98,4.643,4.643,0,0,1,3.327-1.125,6.52,6.52,0,0,1,2.624.48,3.771,3.771,0,0,1,1.7,1.392,4.26,4.26,0,0,1,.018,4.376Z" transform="translate(-26.005 -24.339)"/>
  <path id="Path_1897" data-name="Path 1897" d="M68.267,31.175a4.849,4.849,0,0,0-1.752-.952,7.352,7.352,0,0,0-2.2-.311,6.817,6.817,0,0,0-2.446.413A5.886,5.886,0,0,0,60,31.446a6,6,0,0,0-1.254,1.565,5.243,5.243,0,0,0-.383.871V30.2H55V43.027h3.362V35.406a3.445,3.445,0,0,1,.6-.962,5.16,5.16,0,0,1,1.752-1.3,5.528,5.528,0,0,1,2.429-.52,3.624,3.624,0,0,1,2.57.765,3.192,3.192,0,0,1,.783,2.388v7.254h3.353v-7.85a6.125,6.125,0,0,0-.409-2.361A4.339,4.339,0,0,0,68.267,31.175Z" transform="translate(-36.227 -24.342)"/>
  <path id="Path_1898" data-name="Path 1898" d="M92.542,33.385a3.193,3.193,0,0,1,.792,2.388v7.254h3.353v-7.85a6.3,6.3,0,0,0-.409-2.361,4.339,4.339,0,0,0-1.165-1.641,4.85,4.85,0,0,0-1.752-.952,7.391,7.391,0,0,0-2.2-.311,6.831,6.831,0,0,0-2.455.413,5.942,5.942,0,0,0-1.868,1.121,6,6,0,0,0-1.254,1.565,5.3,5.3,0,0,0-.391.9V30.2H81.842V43.027h3.353v-7.6a3.5,3.5,0,0,1,.6-.983,5.164,5.164,0,0,1,1.752-1.3,5.583,5.583,0,0,1,2.428-.52,3.61,3.61,0,0,1,2.571.765Z" transform="translate(-45.691 -24.342)"/>
  <rect id="Rectangle_272" data-name="Rectangle 272" width="3.353" height="12.831" transform="translate(53.735 5.855)"/>
  <path id="Path_1899" data-name="Path 1899" d="M130.054,30.71a9.8,9.8,0,0,0-4.216-.8,10.835,10.835,0,0,0-4.323.8,6.527,6.527,0,0,0-2.873,2.308,6.249,6.249,0,0,0-1.041,3.629,6.077,6.077,0,0,0,1.067,3.616,6.621,6.621,0,0,0,2.935,2.286,11.214,11.214,0,0,0,4.341.787,10.242,10.242,0,0,0,3.718-.6,5.927,5.927,0,0,0,2.41-1.628,4.654,4.654,0,0,0,1.1-2.348h-3.255a2.634,2.634,0,0,1-1.379,1.432,5.766,5.766,0,0,1-2.677.556,6.176,6.176,0,0,1-2.491-.462,4.2,4.2,0,0,1-1.654-1.267,3.669,3.669,0,0,1-.729-1.779h12.239a8.232,8.232,0,0,0-.685-4.118,5.251,5.251,0,0,0-2.49-2.415Zm-8.886,4.567a3.624,3.624,0,0,1,1.494-2,5.222,5.222,0,0,1,3.024-.809,5.152,5.152,0,0,1,2.98.76,2.719,2.719,0,0,1,1.227,2.05Z" transform="translate(-58.299 -24.34)"/>
  <path id="Path_1900" data-name="Path 1900" d="M110.378,24.7c1.252,0,2.268-.759,2.268-1.7s-1.015-1.7-2.268-1.7-2.268.76-2.268,1.7S109.126,24.7,110.378,24.7Z" transform="translate(-54.953 -21.309)"/>
</svg>
