<svg id="Layer_1" data-name="Layer 1" xmlns="http://www.w3.org/2000/svg" viewBox="0 0 168.25471 101.2132">
  <defs>
    <style>
      .cls-1 {
        fill: #057767;
      }

      .cls-2 {
        fill: #fff;
      }
    </style>
  </defs>
  <g>
    <path class="cls-1" d="M159.58036,31.42758a11.15291,11.15291,0,0,1-3.12305-6.24414C155.159,18.00033,150.84549,12.7518,143.2703,9.138c-6.35352-3.03076-12.02783-2.4458-16.86524,1.74023-.626.54248-1.65234,1.11963-3.32519-.1123a13.58,13.58,0,0,1-1.355-1.20947c-.21289-.20752-.42627-.41455-.64307-.61573a16.42138,16.42138,0,0,0-11.62109-4.3457A13.65527,13.65527,0,0,0,99.74979,9.2c-.8374.92578-1.94629,1.6543-3.82422.02832-.23681-.20459-.458-.42724-.67969-.64892-.20312-.20313-.40722-.40625-.61816-.59961a14.33928,14.33928,0,0,0-20.23041.3291C71.81723,10.84311,71.328,10.846,68.579,8.3353A13.05662,13.05662,0,0,0,58.13071,4.72787c-3.90137.34766-7.248,2.04444-10.85058,5.501-1.78907,1.71582-2.9712,1.791-4.86573.30957a13.52608,13.52608,0,0,0-8.98974-2.94434C23.493,7.11948,12.97153,15.37,11.35434,24.93783c-.46875,2.77686-1.166,4.957-3.041,6.57422a11.22431,11.22431,0,0,0-3.74805,8.26221A11.54927,11.54927,0,0,0,8.01206,48.451c1.81982,1.73291,2.66162,3.90722,3.4292,6.854a23.14021,23.14021,0,0,0,2.64062,6.59912c3.46582,5.50635,8.794,8.82471,15.83643,9.86377,3.49853.51563,8.03125.71338,12.05517-2.3667,2.82618-2.16308,3.21534-2.13818,5.94483.39014,6.43945,5.96338,14.94775,6.2832,21.17236.7959,2.22949-1.96484,3.00391-1.95557,5.17676.06933A15.39535,15.39535,0,0,0,84.785,75.10776a15.58471,15.58471,0,0,0,10.562-4.44239c.3291-.303.62256-.54956.90039-.76513a3.02411,3.02411,0,0,1,2.59717-.56568l.01123-.01416a2.57349,2.57349,0,0,1,.4917.22754c.10107.06519.208.14527.31494.22437a2.829,2.829,0,0,1,.7041,3.50268c-.16162.28223-.32031.56665-.48975.84253-.07812.1294-.14892.2461-.208.34107-5.02491,7.96215-13.2583,13.23632-21.29,16.68164a2.31855,2.31855,0,0,0,1.30176,4.417c27.84179-4.47412,38.72265-16.38574,42.93994-24.26929,1.00586-1.88012,2.90429-3.21216,5.55468-1.73608,4.8501,3.29175,10.36231,3.50635,16.01172.59936,7.21-3.70849,11.50537-9.38916,12.76612-16.88379a7.68293,7.68293,0,0,1,2.13623-4.10449,12.34917,12.34917,0,0,0,4.1206-8.89209A11.88508,11.88508,0,0,0,159.58036,31.42758Z"/>
    <g>
      <path class="cls-2" d="M45.91485,36.33434a12.0886,12.0886,0,0,0-.43945-1.31812,8.05344,8.05344,0,0,0-3.04981-3.73,9.96415,9.96415,0,0,0-5.52294-1.37378,11.70479,11.70479,0,0,0-5.564,1.29834A9.88439,9.88439,0,0,0,27.4505,34.817a10.1106,10.1106,0,0,0-1.44239,5.46118,10.31733,10.31733,0,0,0,1.415,5.406,9.92465,9.92465,0,0,0,3.833,3.627,11.11964,11.11964,0,0,0,5.35791,1.29834,9.96962,9.96962,0,0,0,4.50635-.94117,8.3664,8.3664,0,0,0,3.03613-2.46606A10.84938,10.84938,0,0,0,45.87384,43.85c.01562-.05127.02636-.10205.041-.15332v1.36914c0,.76954.02783,1.55274.06885,2.34961.05518.80347.15137,1.71729.28857,2.7544h4.82227V30.35192H45.91485ZM44.99444,43.589a6.05036,6.05036,0,0,1-2.63769,2.23266,9.50506,9.50506,0,0,1-4.06641.79688,7.8943,7.8943,0,0,1-3.64062-.79688,6.00929,6.00929,0,0,1-2.45948-2.21191,6.2578,6.2578,0,0,1-.8789-3.33154,6.04312,6.04312,0,0,1,1.84082-4.60254,7.17145,7.17145,0,0,1,5.13818-1.7378,10.071,10.071,0,0,1,4.05274.7417,5.82479,5.82479,0,0,1,2.624,2.15015,6.58047,6.58047,0,0,1,.02734,6.75928Z"/>
      <path class="cls-2" d="M75.494,31.86315a7.48926,7.48926,0,0,0-2.70605-1.47,11.35521,11.35521,0,0,0-3.39356-.48072,10.52976,10.52976,0,0,0-3.77832.63868,9.09124,9.09124,0,0,0-2.89843,1.73095,9.26524,9.26524,0,0,0-1.9375,2.418,8.09869,8.09869,0,0,0-.59082,1.345V30.35192H54.9964V50.16979h5.19287V38.39757a5.32142,5.32142,0,0,1,.9209-1.48535,7.96983,7.96983,0,0,1,2.70605-2.01294,8.53894,8.53894,0,0,1,3.751-.80347,5.59681,5.59681,0,0,1,3.97021,1.1814,4.92968,4.92968,0,0,1,1.209,3.689V50.16979h5.17968V38.04552a9.45988,9.45988,0,0,0-.63232-3.64746A6.7025,6.7025,0,0,0,75.494,31.86315Z"/>
      <path class="cls-2" d="M98.369,35.27721a4.93233,4.93233,0,0,1,1.22266,3.689V50.16979h5.1792V38.04552a9.73406,9.73406,0,0,0-.63184-3.64746,6.70259,6.70259,0,0,0-1.7998-2.53491,7.49142,7.49142,0,0,0-2.70654-1.47,11.41509,11.41509,0,0,0-3.39356-.48072,10.55073,10.55073,0,0,0-3.7915.63868,9.17779,9.17779,0,0,0-2.88526,1.73095,9.27362,9.27362,0,0,0-1.937,2.418,8.18138,8.18138,0,0,0-.60449,1.38623V30.35192h-5.1792V50.16979h5.1792V38.43053a5.40964,5.40964,0,0,1,.92041-1.51831,7.97671,7.97671,0,0,1,2.70654-2.01294,8.62359,8.62359,0,0,1,3.75049-.80347A5.57545,5.57545,0,0,1,98.369,35.27721Z"/>
      <rect class="cls-2" x="109.00225" y="30.35192" width="5.17969" height="19.81787"/>
      <path class="cls-2" d="M136.83673,31.14879a15.12951,15.12951,0,0,0-6.51221-1.23633,16.73617,16.73617,0,0,0-6.67676,1.23633,10.08176,10.08176,0,0,0-4.4375,3.56519,9.6518,9.6518,0,0,0-1.60742,5.60522,9.38553,9.38553,0,0,0,1.64844,5.585,10.22725,10.22725,0,0,0,4.53369,3.53077,17.32038,17.32038,0,0,0,6.70459,1.21582,15.81921,15.81921,0,0,0,5.74268-.92066,9.15571,9.15571,0,0,0,3.72314-2.51391A7.18837,7.18837,0,0,0,141.659,43.589h-5.02832a4.069,4.069,0,0,1-2.12939,2.21191,8.90641,8.90641,0,0,1-4.13526.85864,9.54,9.54,0,0,1-3.84716-.71435,6.49155,6.49155,0,0,1-2.55518-1.95776,5.66633,5.66633,0,0,1-1.12646-2.74756H141.741a12.7152,12.7152,0,0,0-1.05761-6.36109A8.111,8.111,0,0,0,136.83673,31.14879Zm-13.72461,7.05469a5.597,5.597,0,0,1,2.30762-3.09106,8.06591,8.06591,0,0,1,4.67138-1.25025,7.95746,7.95746,0,0,1,4.60254,1.17456,4.199,4.199,0,0,1,1.89551,3.16675Z"/>
      <path class="cls-2" d="M111.61261,26.54943c1.93457,0,3.50293-1.1731,3.50293-2.62012s-1.56836-2.62012-3.50293-2.62012c-1.93409,0-3.50244,1.1731-3.50244,2.62012S109.67852,26.54943,111.61261,26.54943Z"/>
    </g>
  </g>
</svg>
