<svg xmlns="http://www.w3.org/2000/svg" width="15.009" height="15.009" viewBox="0 0 15.009 15.009">
  <path id="Path_1964" data-name="Path 1964" d="M19.244,17.651,18.11,18.786a1.444,1.444,0,0,1-1.352.4,15.064,15.064,0,0,1-9.074-6.468,14.689,14.689,0,0,1-1.97-4.576,1.444,1.444,0,0,1,.4-1.352L7.249,5.656a1.473,1.473,0,0,1,2.084,0L11,7.32A1.473,1.473,0,0,1,11,9.4l-1.139,1.14a11.989,11.989,0,0,0,4.5,4.5L15.5,13.9a1.473,1.473,0,0,1,2.084,0l1.664,1.664A1.473,1.473,0,0,1,19.244,17.651Z" transform="translate(-5.167 -4.724)" fill="none" stroke="#1f2659" stroke-linecap="round" stroke-linejoin="round" stroke-width="1"/>
</svg>
