<svg id="Group_1037" data-name="Group 1037" xmlns="http://www.w3.org/2000/svg" xmlns:xlink="http://www.w3.org/1999/xlink" width="465.793" height="537.748" viewBox="0 0 465.793 537.748">
  <g id="star-group">
  <defs>
    <clipPath id="clip-path">
      <rect id="Rectangle_717" data-name="Rectangle 717" width="465.793" height="537.748" fill="#00469a"/>
    </clipPath>
  </defs>
  <g id="Group_1036" data-name="Group 1036" clip-path="url(#clip-path)">
    <g id="star-1">
      <path id="Path_2118" data-name="Path 2118" d="M264.374,179.2a110.872,110.872,0,0,1-.985,16.728q.24-1.8.482-3.589a148.278,148.278,0,0,1-10.551,36.878l1.361-3.224a256.894,256.894,0,0,1-13.88,27.621,221.934,221.934,0,0,1-16.181,24.8l2.111-2.733A113.585,113.585,0,0,1,207,295.9l2.732-2.111c-9.572,7.384-20.371,12.877-31.467,17.578l3.225-1.361c-11.654,4.906-23.583,9.194-35.5,13.4q-18.76,6.627-37.762,12.547c-5.476,1.708-10.181,7-9.911,13.018a16,16,0,0,0,1.843,6.813,13.5,13.5,0,0,0,8.068,6.2,314.457,314.457,0,0,1,60.434,18.555l-3.225-1.361c16.295,6.9,32.7,14.818,46.769,25.667l-2.732-2.111a88.981,88.981,0,0,1,15.441,15.167q-1.056-1.365-2.111-2.732a109.271,109.271,0,0,1,13.719,24.432q-.68-1.612-1.361-3.225c4.324,10.3,7.892,20.918,11.657,31.431l12.168,33.978,6.938,19.37c1.147,3.206,3.063,6.409,6.2,8.068a13.9,13.9,0,0,0,8.608,1.6,12.826,12.826,0,0,0,7.751-3.713,15.434,15.434,0,0,0,3.954-9.546q.293-2.787.659-5.566-.24,1.8-.482,3.589a192.95,192.95,0,0,1,13.445-49.039q-.681,1.611-1.361,3.224A194.245,194.245,0,0,1,329.486,427.3q-1.056,1.365-2.111,2.732c7.327-9.467,15.451-18.58,24.936-25.939l-2.733,2.111A94.4,94.4,0,0,1,370.3,394.525l-3.224,1.361c10.824-4.545,21.96-8.413,33.011-12.365q17.023-6.088,34.18-11.8,9.758-3.246,19.556-6.368c5.471-1.744,10.182-6.969,9.911-13.018a13.906,13.906,0,0,0-9.911-13.017c-20.739-5.922-41.5-11.857-61.761-19.291q-8.724-3.2-17.291-6.8l3.225,1.361c-12.294-5.213-25.083-10.772-35.746-18.938l2.732,2.111a57.419,57.419,0,0,1-9.9-9.851q1.056,1.367,2.111,2.732A101.651,101.651,0,0,1,327.007,273.7q-4.645-9.35-8.7-18.979.68,1.612,1.361,3.225a355.157,355.157,0,0,1-22.6-76.827c-.55-3.149-3.548-6.513-6.2-8.068a13.5,13.5,0,0,0-18.471,4.844,15.307,15.307,0,0,0-1.361,10.4,360.607,360.607,0,0,0,33.324,100.354c4.065,8.039,8.866,15.8,15.069,22.384,6.068,6.446,13.681,11.519,21.43,15.721,15.819,8.58,32.706,15.369,49.659,21.342,18.469,6.506,37.3,11.89,56.125,17.264V339.322q-26.864,8.565-53.423,18.051c-8.742,3.125-17.475,6.29-26.146,9.609-9.017,3.451-18.139,7.122-26.248,12.436-15.382,10.081-27.667,24.39-38.336,39.2a206.57,206.57,0,0,0-23.851,44.136,203.575,203.575,0,0,0-13.2,54.826l26.518-3.588L273.3,461.908c-5.926-16.547-11.247-33.716-19.827-49.132a96.532,96.532,0,0,0-15.921-21.238,123.782,123.782,0,0,0-20.625-16.264c-14.626-9.412-30.72-16.69-46.84-23.119a313.194,313.194,0,0,0-54.69-16.2v26.035Q142,353.7,168.132,344.032c16.6-6.148,33.588-12.394,48.483-22.13a116.08,116.08,0,0,0,20.6-17.024,164.176,164.176,0,0,0,16.817-21.3,261.27,261.27,0,0,0,23.965-43.953c8.142-19.177,13.765-39.408,13.38-60.42a14.025,14.025,0,0,0-3.954-9.546,13.719,13.719,0,0,0-9.546-3.954c-7.2.323-13.639,5.935-13.5,13.5" fill="#00469a"/>
    </g>
    <g id="star-2">
      <path id="Path_2119" data-name="Path 2119" d="M89.266,108.93q-.246,2.187-.537,4.368l.483-3.589a129.155,129.155,0,0,1-8.43,32.7q.681-1.612,1.361-3.225a83.149,83.149,0,0,1-10.5,18.217q1.055-1.366,2.111-2.732a80.353,80.353,0,0,1-14.313,14.246l2.732-2.111a84.622,84.622,0,0,1-18.45,10.744l3.225-1.36a82.844,82.844,0,0,1-20.934,5.72l3.589-.482a77.627,77.627,0,0,1-16.1.429c-3.286-.258-7.281,1.691-9.545,3.954a13.5,13.5,0,0,0,0,19.092L6.7,207.016a13.441,13.441,0,0,0,6.812,1.843l.457.061-3.587-.483a91.408,91.408,0,0,1,22.573,6.318l-3.225-1.361a107.813,107.813,0,0,1,23.7,13.822L50.7,225.1A114.605,114.605,0,0,1,71.273,245.71q-1.055-1.367-2.112-2.733A115.346,115.346,0,0,1,83.867,268.12l-1.361-3.225a108.5,108.5,0,0,1,7.548,27.335l-.483-3.589c.048.367.1.734.144,1.1a15.012,15.012,0,0,0,3.954,9.546A13.876,13.876,0,0,0,101.42,303a12.905,12.905,0,0,0,8.608-1.6c2.82-1.818,5.551-4.648,6.2-8.068,2.315-12.142,4.838-24.365,9.634-35.809q-.682,1.612-1.361,3.224a70.547,70.547,0,0,1,8.8-15.455q-1.055,1.366-2.111,2.732a53.093,53.093,0,0,1,9.244-9.321l-2.731,2.111c5.352-4.105,11.4-7.216,17.387-10.283,6.1-3.129,12.311-6.059,18.63-8.732l-3.224,1.361a201.017,201.017,0,0,1,31.071-10.345l3.225-1.361a10.179,10.179,0,0,0,3.786-3.477,12.854,12.854,0,0,0,2.9-8.18,16.007,16.007,0,0,0-1.844-6.814,15.1,15.1,0,0,0-8.067-6.2,158.738,158.738,0,0,1-37.2-9.95l3.226,1.361a99.307,99.307,0,0,1-22.074-12.663q1.366,1.056,2.731,2.111A80.443,80.443,0,0,1,134,153.38l2.111,2.732a70.759,70.759,0,0,1-8.962-15.261q.678,1.612,1.361,3.224a60.1,60.1,0,0,1-4.159-15.084q.24,1.794.482,3.588a114.239,114.239,0,0,1-.566-11.831c-.127-5.1-.509-10.527-2.506-15.277a10.169,10.169,0,0,0-2.417-4.591,10.221,10.221,0,0,0-3.787-3.477,13.5,13.5,0,0,0-18.471,4.844c-1.57,2.97-2.73,7.146-1.361,10.4a24.948,24.948,0,0,1,1.665,6.361l-.484-3.588c.583,4.744.245,9.532.623,14.289a73.528,73.528,0,0,0,2.734,15.425,82.136,82.136,0,0,0,5.955,14.374,88.725,88.725,0,0,0,8.689,12.962c12.3,15.842,30.064,26.25,48.728,32.886a167.927,167.927,0,0,0,30.754,7.456V186.778a198.041,198.041,0,0,0-29.364,9.634,308.471,308.471,0,0,0-30.661,14.555,87.327,87.327,0,0,0-14.889,10.165,67.365,67.365,0,0,0-10.262,11.562c-5.549,7.549-9.314,16.447-12.241,25.3A220.974,220.974,0,0,0,90.2,286.153l26.518,3.589a121,121,0,0,0-6.924-28.945,128.088,128.088,0,0,0-13.614-26.365c-11.208-16.305-25.891-30.311-43.334-39.8a126.249,126.249,0,0,0-17.874-7.918,103.656,103.656,0,0,0-21.461-4.858v27a89.746,89.746,0,0,0,29.068-2.734,95.349,95.349,0,0,0,26.76-11.5,91.77,91.77,0,0,0,21.99-18.959,96.273,96.273,0,0,0,9.491-13.437,112.937,112.937,0,0,0,7.613-16.711c4.365-11.76,6.436-24.17,7.836-36.591.362-3.211-1.768-7.36-3.954-9.546a13.5,13.5,0,0,0-19.092,0l-2.111,2.732a13.445,13.445,0,0,0-1.843,6.814" fill="#00469a"/>
    </g>
    <g id="star-3">
      <path id="Path_2120" data-name="Path 2120" d="M218.127,9.867l-3.861,15.916L212.394,33.5a53.654,53.654,0,0,1-2.072,7.32l1.361-3.225a16.265,16.265,0,0,1-1.859,3.285q1.056-1.365,2.111-2.732a21.654,21.654,0,0,1-3.775,3.709l2.732-2.111a87.831,87.831,0,0,1-19.135,10.613L194.982,49a106.564,106.564,0,0,1-20.844,6.311l-3.225,1.36a10.2,10.2,0,0,0-3.788,3.478,12.865,12.865,0,0,0-2.9,8.179,16.017,16.017,0,0,0,1.844,6.814c1.42,2.688,5.032,5.633,8.068,6.2a60.354,60.354,0,0,1,12.2,3.677l-3.225-1.361a65.376,65.376,0,0,1,14.313,8.423l-2.733-2.111a69.076,69.076,0,0,1,12.017,12.044q-1.056-1.367-2.111-2.732a67.331,67.331,0,0,1,8.6,14.647q-.68-1.612-1.361-3.225a61.688,61.688,0,0,1,4.3,15.664q-.242-1.794-.482-3.589.18,1.412.3,2.829c.306,3.636,1.3,6.891,3.954,9.546a13.5,13.5,0,0,0,19.092,0,14.25,14.25,0,0,0,3.954-9.546,34.19,34.19,0,0,1,.291-3.836q-.241,1.8-.482,3.589a35.081,35.081,0,0,1,2.319-8.346q-.681,1.613-1.361,3.225a49.4,49.4,0,0,1,6.5-10.871l-2.111,2.733A109.856,109.856,0,0,1,267.235,93.64L264.5,95.751a30.1,30.1,0,0,1,6.426-3.929L267.7,93.183a32.2,32.2,0,0,1,7.7-1.911l-3.589.483c4.066-.54,8.147-.892,12.211-1.469a40.226,40.226,0,0,0,11.448-3.612l2.732-2.11,2.111-2.733a13.348,13.348,0,0,0,1.6-8.608,12.787,12.787,0,0,0-2.657-6.385A13.1,13.1,0,0,0,292.245,62a159.67,159.67,0,0,1-22.951-7.231l3.225,1.361a62.447,62.447,0,0,1-13.743-7.83l2.732,2.111a41.839,41.839,0,0,1-7.231-7.19q1.056,1.365,2.111,2.732a39.629,39.629,0,0,1-4.986-8.7l1.361,3.225a100.692,100.692,0,0,1-3.793-11.805q-1.8-6.561-3.594-13.123a13.966,13.966,0,0,0-6.2-8.068A13.5,13.5,0,0,0,220.7,12.326a14.076,14.076,0,0,0-1.361,10.4c1.832,6.688,3.483,13.462,5.612,20.063a71.67,71.67,0,0,0,4.86,11.745,52.808,52.808,0,0,0,6.488,9.151A56.417,56.417,0,0,0,250.445,75.21a97.05,97.05,0,0,0,17.194,7.736c5.707,2.028,11.562,3.6,17.429,5.089l-3.225-24.674q-.378.18-.764.343l3.225-1.361a32.273,32.273,0,0,1-8.086,1.993l3.589-.482c-6.291.806-12.912.843-18.893,3.136a38.405,38.405,0,0,0-9.861,5.311c-2.867,2.183-5.661,4.437-8.388,6.792a111.311,111.311,0,0,0-10.874,10.57,69.723,69.723,0,0,0-10.2,14.368,49.541,49.541,0,0,0-5.643,21.578h27a76.231,76.231,0,0,0-12.737-36.795c-7.376-10.766-17.077-20.078-28.678-26.194a72.557,72.557,0,0,0-20.218-7.312V81.343A117.191,117.191,0,0,0,215.2,68.928c2.375-1.305,4.711-2.693,6.967-4.194a38.621,38.621,0,0,0,8.351-6.86,32.406,32.406,0,0,0,6.557-11.913c.871-2.84,1.472-5.775,2.172-8.66l4.914-20.256a14.157,14.157,0,0,0-1.361-10.4,13.762,13.762,0,0,0-8.068-6.2c-3.456-.787-7.335-.617-10.4,1.361a13.762,13.762,0,0,0-6.2,8.068" fill="#00469a"/>
    </g>
  </g>
  </g>
</svg>
