<svg xmlns="http://www.w3.org/2000/svg" width="177.047" height="205.013" viewBox="0 0 177.047 205.013">
  <g id="star-group">
    <g id="Group_1029" data-name="Group 1029" transform="translate(-871.476 -178)">
      <g id="star-1">
        <path id="star-1-path" data-name="Path 2033" d="M290.63,287.83l-9.739,30.137-9.739-30.137a46.534,46.534,0,0,0-30.014-30.014L211,248.077l30.137-9.739a46.534,46.534,0,0,0,30.014-30.014l9.739-30.137,9.739,30.137a46.534,46.534,0,0,0,30.014,30.014l30.137,9.739-30.137,9.739A46.582,46.582,0,0,0,290.63,287.83Z" transform="translate(697.743 65.046)" fill="#00469a"/>
      </g>
      <g id="star-2">
        <path id="star-2-path" data-name="Path 2034" d="M151.905,159.535l-5.433,16.832-5.433-16.832a23.313,23.313,0,0,0-15.007-15.007L109.2,139.076l16.832-5.433a23.313,23.313,0,0,0,15.007-15.007l5.433-16.832,5.433,16.832a23.313,23.313,0,0,0,15.007,15.007l16.832,5.433-16.832,5.433A23.386,23.386,0,0,0,151.905,159.535Z" transform="translate(762.275 113.466)" fill="#00469a"/>
      </g>
      <g id="star-3">
        <path id="star-3-path" data-name="Path 2035" d="M313.978,36.35l-3.3,10.23-3.3-10.23a15.147,15.147,0,0,0-9.759-9.759l-10.23-3.3,10.23-3.3a15.147,15.147,0,0,0,9.759-9.759L310.677,0l3.3,10.23a15.147,15.147,0,0,0,9.759,9.759l10.23,3.3-10.23,3.3A15.234,15.234,0,0,0,313.978,36.35Z" transform="translate(649.321 177.999)" fill="#00469a"/>
      </g>
    </g>
  </g>
</svg>
